PathFileType	4	(X/Y/Z)	/Users/itak/Documents/Research/Walk-IL/dataset/trc/00389_00012.trc
DataRate	CameraRate	NumFrames	NumMarkers	Units	OrigDataRate	OrigDataStartFrame	OrigNumFrames
100.000000	100.000000	4	53	mm	100.000000	0	608
Frame#	Time	RPSI			LPSI			L3			STRN			T10			C7			CLAV			RBAK			LBAK			LSHO			LUPA			LAEL			LAOL			LWTS			LWPS			LFRA			LIFD			LHPS			LHTS			RSHO			RUPA			RAEL			RAOL			RWTS			RWPS			RFRA			RIFD			RHTS			RHPS			RBHD			LFHD			RFHD			LBHD			LHIP			RHIP			RASI			LASI			LKNE			LTHI			LANK			LTIP			LTOE			LMT1			LMT5			LHEE			RKNE			RANK			RTIP			RTOE			RMT1			RMT5			RHEE			RTHI			
		X1	Y1	Z1	X2	Y2	Z2	X3	Y3	Z3	X4	Y4	Z4	X5	Y5	Z5	X6	Y6	Z6	X7	Y7	Z7	X8	Y8	Z8	X9	Y9	Z9	X10	Y10	Z10	X11	Y11	Z11	X12	Y12	Z12	X13	Y13	Z13	X14	Y14	Z14	X15	Y15	Z15	X16	Y16	Z16	X17	Y17	Z17	X18	Y18	Z18	X19	Y19	Z19	X20	Y20	Z20	X21	Y21	Z21	X22	Y22	Z22	X23	Y23	Z23	X24	Y24	Z24	X25	Y25	Z25	X26	Y26	Z26	X27	Y27	Z27	X28	Y28	Z28	X29	Y29	Z29	X30	Y30	Z30	X31	Y31	Z31	X32	Y32	Z32	X33	Y33	Z33	X34	Y34	Z34	X35	Y35	Z35	X36	Y36	Z36	X37	Y37	Z37	X38	Y38	Z38	X39	Y39	Z39	X40	Y40	Z40	X41	Y41	Z41	X42	Y42	Z42	X43	Y43	Z43	X44	Y44	Z44	X45	Y45	Z45	X46	Y46	Z46	X47	Y47	Z47	X48	Y48	Z48	X49	Y49	Z49	X50	Y50	Z50	X51	Y51	Z51	X52	Y52	Z52	X53	Y53	Z53	

1	0	954.6220092773438	978.777099609375	8.847966194152832	945.7505493164062	971.202880859375	-121.8509826660156	953.6300659179688	1044.98486328125	-54.3108024597168	1193.665283203125	1207.2939453125	-56.31457138061523	945.1240844726562	1149.863647460938	-58.50180435180664	979.24072265625	1399.619262695312	-69.77398681640625	1137.9794921875	1325.328369140625	-59.24999618530273	938.7593994140625	1252.771606445312	-1.114596009254456	967.4466552734375	1361.590087890625	-172.9565582275391	1056.424194335938	1377.725708007812	-221.5096282958984	1041.3017578125	1259.333129882812	-290.4859313964844	1081.311889648438	1063.398559570312	-304.9521789550781	1014.573425292969	1039.80078125	-255.5408172607422	1173.851440429688	857.864990234375	-226.3879547119141	1146.708740234375	838.0130615234375	-301.7612915039062	1109.444702148438	960.4371337890625	-306.0242004394531	1185.372314453125	678.859375	-222.86865234375	1163.213623046875	755.0421142578125	-286.4292297363281	1203.333862304688	763.2215576171875	-236.8486480712891	1036.302978515625	1381.041015625	91.70684051513672	1024.566040039062	1315.107421875	151.299072265625	1043.365478515625	1052.450073242188	185.7998809814453	1022.316711425781	1041.225341796875	95.71694946289062	1176.14794921875	841.6408081054688	146.2146453857422	1139.362915039062	828.887939453125	209.1835174560547	1073.307495117188	987.97705078125	199.6824951171875	1183.867919921875	669.212890625	148.5746612548828	1200.804077148438	738.5540771484375	164.1664581298828	1145.636352539062	739.3726196289062	206.7120971679688	1002.749206542969	1589.252563476562	0.9525080323219299	1176.971069335938	1596.25048828125	-95.03118133544922	1134.549438476562	1601.069702148438	20.82780265808105	1041.321533203125	1580.205810546875	-154.8639678955078	1028.730224609375	957.100341796875	-236.9898376464844	1049.827026367188	951.8535766601562	123.8123092651367	1172.219970703125	961.3827514648438	64.21205902099609	1147.864624023438	955.4547729492188	-198.6927185058594	1051.198120117188	464.0647583007812	-210.1423950195312	1054.06201171875	607.295654296875	-223.3892669677734	929.3984375	33.38944625854492	-162.7699279785156	984.922119140625	237.6007385253906	-198.6943206787109	1145.5595703125	33.20083999633789	-104.3443756103516	1066.154052734375	35.36816024780273	-71.67736053466797	1056.822387695312	32.36243438720703	-175.8242645263672	892.6729125976562	32.47770309448242	-105.5942306518555	1050.311645507812	465.6011657714844	95.57146453857422	971.8287353515625	46.87496566772461	58.38807678222656	1049.134399414062	339.5442504882812	78.94365692138672	1151.382446289062	27.53189086914062	-8.39580249786377	1074.165405273438	32.96377563476562	-34.57109069824219	1057.3564453125	39.33585357666016	61.17222595214844	896.6801147460938	34.45160675048828	7.017467975616455	1100.1748046875	729.1870727539062	124.0939636230469	
2	0.01	954.6183471679688	978.7507934570312	8.901616096496582	945.5113525390625	971.18017578125	-121.7441558837891	953.4439697265625	1044.980590820312	-54.22688293457031	1193.525390625	1207.290161132812	-56.25261306762695	944.938720703125	1149.86083984375	-58.4063720703125	979.1297607421875	1399.595947265625	-69.76285552978516	1137.880615234375	1325.3623046875	-59.27370834350586	938.685791015625	1252.8017578125	-1.102526783943176	967.3025512695312	1361.584228515625	-172.9627075195312	1056.256103515625	1377.665893554688	-221.5261383056641	1041.097778320312	1259.274536132812	-290.4642028808594	1081.048461914062	1063.34423828125	-304.8915710449219	1014.414489746094	1039.74755859375	-255.3965454101562	1173.649780273438	857.8848266601562	-226.3192749023438	1146.438720703125	837.9951171875	-301.6898193359375	1109.232788085938	960.391845703125	-305.9553527832031	1185.04052734375	678.5107421875	-222.5853729248047	1162.995361328125	754.9783325195312	-286.3078918457031	1203.144897460938	763.0880126953125	-236.7554321289062	1036.236694335938	1381.125854492188	91.70703125	1024.426513671875	1315.190673828125	151.2796173095703	1043.263549804688	1052.521484375	185.8563842773438	1022.115417480469	1041.300048828125	95.77818298339844	1176.02001953125	841.7030029296875	146.2682342529297	1139.2958984375	828.9423828125	209.2630462646484	1073.238159179688	988.0618896484375	199.7483825683594	1183.7275390625	669.259521484375	148.6592559814453	1200.501098632812	738.5755615234375	164.1488189697266	1145.733032226562	739.4760131835938	206.8910064697266	1002.323364257812	1589.177978515625	0.6777428388595581	1176.899658203125	1596.287963867188	-94.60321807861328	1134.090087890625	1601.157592773438	21.17440795898438	1041.52197265625	1580.221435546875	-154.9984893798828	1028.580688476562	957.0843505859375	-236.9119567871094	1049.5830078125	951.8932495117188	123.8568649291992	1172.110595703125	961.4002075195312	64.30972290039062	1147.731201171875	955.5054321289062	-198.6496887207031	1051.166625976562	464.0900268554688	-210.0950012207031	1053.998657226562	607.3121337890625	-223.3027191162109	929.3964233398438	33.38914108276367	-162.7569122314453	984.9248046875	237.5907287597656	-198.644287109375	1145.561889648438	33.20415496826172	-104.3470764160156	1066.153686523438	35.36999130249023	-71.67979431152344	1056.808959960938	32.3531379699707	-175.8168640136719	892.6630249023438	32.4792594909668	-105.5824584960938	1050.323608398438	465.6346130371094	95.68856048583984	971.8549194335938	46.82335662841797	58.46059417724609	1049.062133789062	339.5333557128906	79.02176666259766	1151.374145507812	27.55332565307617	-8.389488220214844	1074.154052734375	32.97920227050781	-34.55147552490234	1057.3330078125	39.25937652587891	61.197509765625	896.6950073242188	34.4372444152832	7.031988143920898	1099.909057617188	729.2615356445312	124.1735534667969	
3	0.02	954.594482421875	978.7203369140625	8.97838306427002	945.2183837890625	971.15380859375	-121.6051406860352	953.2002563476562	1044.985595703125	-54.12288665771484	1193.359008789062	1207.297241210938	-56.18719863891602	944.7357177734375	1149.852172851562	-58.28783416748047	978.9772338867188	1399.564819335938	-69.74643707275391	1137.7490234375	1325.404663085938	-59.30788803100586	938.574951171875	1252.833251953125	-1.088879466056824	967.1178588867188	1361.568115234375	-172.9715881347656	1056.049926757812	1377.594604492188	-221.5527801513672	1040.840698242188	1259.197265625	-290.4380187988281	1080.725341796875	1063.269775390625	-304.8202514648438	1014.220703125	1039.68408203125	-255.2239379882812	1173.393310546875	857.890380859375	-226.2226409912109	1146.101196289062	837.9561767578125	-301.5872497558594	1108.947021484375	960.318359375	-305.8655090332031	1184.65087890625	678.1574096679688	-222.2717437744141	1162.694091796875	754.8853759765625	-286.1511840820312	1202.86962890625	762.9175415039062	-236.6230163574219	1036.140747070312	1381.223510742188	91.70555114746094	1024.2333984375	1315.290771484375	151.2490844726562	1043.140380859375	1052.6142578125	185.9315338134766	1021.859069824219	1041.387451171875	95.85620880126953	1175.8623046875	841.782958984375	146.3307647705078	1139.212524414062	829.015869140625	209.3603363037109	1073.150756835938	988.1650390625	199.8335571289062	1183.555786132812	669.322021484375	148.7579040527344	1200.16943359375	738.6085205078125	164.1488494873047	1145.838745117188	739.6104736328125	207.1035614013672	1001.821411132812	1589.082885742188	0.3528462052345276	1176.806396484375	1596.339965820312	-94.09187316894531	1133.525390625	1601.279418945312	21.63526916503906	1041.755615234375	1580.24755859375	-155.1536712646484	1028.354125976562	957.0601196289062	-236.8081817626953	1049.440551757812	951.924560546875	123.9687271118164	1171.963745117188	961.4240112304688	64.43515777587891	1147.557861328125	955.5770874023438	-198.5928344726562	1051.124877929688	464.1246032714844	-210.0317840576172	1053.920532226562	607.3264770507812	-223.1974029541016	929.3925170898438	33.38918304443359	-162.7428588867188	984.92578125	237.5830383300781	-198.5830230712891	1145.561157226562	33.20135498046875	-104.3451461791992	1066.153686523438	35.37209701538086	-71.68268585205078	1056.794677734375	32.34360122680664	-175.8089294433594	892.6474609375	32.48001480102539	-105.5703964233398	1050.32763671875	465.6728210449219	95.83319854736328	971.8768310546875	46.75341415405273	58.547119140625	1048.978881835938	339.5201110839844	79.11385345458984	1151.364135742188	27.58014488220215	-8.380452156066895	1074.14013671875	32.99702072143555	-34.52590179443359	1057.303466796875	39.17523193359375	61.23352813720703	896.7129516601562	34.41730117797852	7.048361301422119	1099.73876953125	729.3370361328125	124.3293380737305	
4	0.03	954.5352172851562	978.6860961914062	9.080842018127441	944.8897705078125	971.12451171875	-121.4381942749023	952.90869140625	1045	-54.00162506103516	1193.177368164062	1207.318725585938	-56.12591171264648	944.5348510742188	1149.837280273438	-58.14987945556641	978.7841186523438	1399.528198242188	-69.72664642333984	1137.586547851562	1325.453002929688	-59.35197448730469	938.4251708984375	1252.862670898438	-1.074728846549988	966.8994140625	1361.539184570312	-172.9840698242188	1055.8154296875	1377.516235351562	-221.5902404785156	1040.5419921875	1259.103637695312	-290.4084777832031	1080.359252929688	1063.175415039062	-304.7420654296875	1014	1039.613525390625	-255.0333251953125	1173.0888671875	857.8726806640625	-226.1002960205078	1145.710693359375	837.8890380859375	-301.451416015625	1108.591918945312	960.212646484375	-305.7555847167969	1184.229858398438	677.86181640625	-221.9616851806641	1162.311157226562	754.7619018554688	-285.9634704589844	1202.509155273438	762.725830078125	-236.4561462402344	1036.01318359375	1381.326049804688	91.70133209228516	1023.991088867188	1315.400268554688	151.2076873779297	1043.004516601562	1052.725463867188	186.0244903564453	1021.562133789062	1041.481811523438	95.94893646240234	1175.683349609375	841.8772583007812	146.3979339599609	1139.11572265625	829.1073608398438	209.4702301025391	1073.049194335938	988.2811889648438	199.9348754882812	1183.36279296875	669.4000244140625	148.8654632568359	1199.844482421875	738.65478515625	164.1755828857422	1145.938720703125	739.771728515625	207.335205078125	1001.275756835938	1588.972778320312	-0.0005852545727975667	1176.692749023438	1596.40625	-93.53430938720703	1132.883056640625	1601.43505859375	22.20012855529785	1042.0029296875	1580.285278320312	-155.3160552978516	1028.044677734375	957.029052734375	-236.6794586181641	1049.45751953125	951.941162109375	124.1603775024414	1171.779052734375	961.4542846679688	64.58322906494141	1147.349609375	955.667724609375	-198.5233306884766	1051.074584960938	464.16845703125	-209.953369140625	1053.83251953125	607.3364868164062	-223.0799865722656	929.3869018554688	33.38934326171875	-162.7291412353516	984.924072265625	237.5791625976562	-198.5142974853516	1145.557739257812	33.19303894042969	-104.3387222290039	1066.154174804688	35.37314605712891	-71.68596649169922	1056.783081054688	32.33639144897461	-175.8021545410156	892.6253662109375	32.47925186157227	-105.5608825683594	1050.318969726562	465.7127685546875	95.99736022949219	971.8893432617188	46.66923141479492	58.63965225219727	1048.89111328125	339.5061950683594	79.21453094482422	1151.353149414062	27.61196517944336	-8.368204116821289	1074.12451171875	33.01528930664062	-34.49559783935547	1057.273315429688	39.09709167480469	61.28479385375977	896.7299194335938	34.39226150512695	7.06541919708252	1099.723022460938	729.4052734375	124.572135925293	
